<?xml version="1.0" encoding="utf-8"?>
<!-- Generator: Adobe Illustrator 16.0.0, SVG Export Plug-In . SVG Version: 6.00 Build 0)  -->
<!DOCTYPE svg PUBLIC "-//W3C//DTD SVG 1.1//EN" "http://www.w3.org/Graphics/SVG/1.1/DTD/svg11.dtd">
<svg version="1.1" id="Layer_1" xmlns="http://www.w3.org/2000/svg" xmlns:xlink="http://www.w3.org/1999/xlink" x="0px" y="0px"
	 width="138px" height="37px" viewBox="0 0 138 37" enable-background="new 0 0 138 37" xml:space="preserve">
<path fill="#0095DA" d="M74.911,24.291c-1.146,0.508-2.695,0.869-4.596,1.076c-1.419,0.154-6.648,0.219-6.648,0.219
	c-0.699,0.008-1.84,0.012-2.534,0.012h-11.37c-0.694,0-1.413,0.57-1.602,1.268l-1.479,5.52c-0.188,0.693-0.908,1.264-1.604,1.264
	h-4.899c-0.696,0-1.114-0.57-0.925-1.264l7.439-27.768c0.184-0.695,0.906-1.264,1.601-1.264h18.703c0.699,0,1.835,0.007,2.526,0.014
	c0,0,5.945,0.07,7.125,0.238c2.766,0.384,4.456,1.256,5.022,2.598c0.608,1.433,0.374,4.18-0.695,8.165
	c-1.018,3.813-2.149,6.472-3.363,7.902C76.855,23.164,75.973,23.824,74.911,24.291 M66.483,19.654c4.068,0,5.501-1.231,6.192-2.39
	c0.408-0.688,0.782-1.66,1.112-2.896c0.354-1.32,0.469-2.295,0.354-2.972c-0.147-0.845-0.812-2.101-4.872-2.101H54.132
	c-0.694,0-1.415,0.57-1.6,1.263l-2.1,7.837c-0.188,0.695,0.228,1.263,0.924,1.263L66.483,19.654z M90.046,3.354
	c-0.695,0-1.416,0.568-1.601,1.264l-7.441,27.768c-0.189,0.693,0.228,1.264,0.924,1.264h5.407c0.699,0,1.418-0.57,1.604-1.264
	l7.44-27.768c0.188-0.695-0.231-1.264-0.924-1.264H90.046z M137.956,4.617c0.186-0.695-0.229-1.264-0.924-1.264h-34.682
	c-0.695,0-1.415,0.568-1.602,1.264l-0.877,3.264c-0.186,0.695,0.229,1.263,0.926,1.263h12.122c0.696,0,1.109,0.57,0.922,1.264
	l-5.887,21.977c-0.185,0.693,0.23,1.264,0.93,1.264h5.403c0.699,0,1.418-0.57,1.605-1.264l5.885-21.977
	c0.188-0.693,0.91-1.264,1.606-1.264h12.095c0.696,0,1.415-0.568,1.601-1.263L137.956,4.617z M34.994,33.648
	c0.696,0,0.922-0.361,0.5-0.799l-13.94-14.521c-0.419-0.44-0.219-1.146,0.446-1.568l19.824-12.64
	c0.663-0.423,0.64-0.769-0.057-0.769h-7.935c-0.696,0-1.803,0.358-2.46,0.793L12.943,16.36c-0.654,0.434-1.042,0.223-0.855-0.472
	L15.12,4.616c0.187-0.694-0.229-1.264-0.925-1.264H9.088c-0.698,0-1.419,0.57-1.603,1.264l-7.44,27.769
	c-0.188,0.693,0.229,1.264,0.926,1.264h5.095c0.696,0,1.418-0.57,1.603-1.264l3.338-12.443c0.184-0.695,0.669-0.896,1.078-0.447
	l12.173,13.338c0.411,0.447,1.314,0.816,2.008,0.816H34.994z"/>
</svg>
